<svg xmlns="http://www.w3.org/2000/svg" style="display: none;">
  <symbol id="icon-strategy" viewBox="0 0 64 64">
    <path d="M32 6C17.64 6 6 17.64 6 32s11.64 26 26 26 26-11.64 26-26S46.36 6 32 6zM30 16h4v14h-4V16zm2 34c-2.21 0-4-1.79-4-4s1.79-4 4-4 4 1.79 4 4-1.79 4-4 4z"></path>
  </symbol>
  <symbol id="icon-punctuality" viewBox="0 0 64 64">
    <path d="M32 4C17.65 4 6 15.65 6 30s11.65 26 26 26 26-11.65 26-26S46.35 4 32 4zm1 36h-4V28h4v12zm0-16h-4v-4h4v4z"></path>
  </symbol>
  <symbol id="icon-diligence" viewBox="0 0 64 64">
    <path d="M29 2C15.43 2 4 13.43 4 27s11.43 25 25 25c5.18 0 9.94-1.62 13.79-4.39L56.1 59.7c1.17 1.17 3.07 1.17 4.24 0 1.17-1.17 1.17-3.07 0-4.24L47.24 47.06C50.98 43.15 53 37.27 53 31c0-13.57-11.43-25-25-25zm0 46c-11.59 0-21-9.41-21-21s9.41-21 21-21 21 9.41 21 21-9.41 21-21 21z"></path>
  </symbol>
  <symbol id="icon-technologies" viewBox="0 0 64 64">
    <path d="M48 0H16C7.16 0 0 7.16 0 16v32c0 8.84 7.16 16 16 16h32c8.84 0 16-7.16 16-16V16c0-8.84-7.16-16-16-16zM32 56c-13.25 0-24-10.75-24-24S18.75 8 32 8s24 10.75 24 24-10.75 24-24 24zm0-40c-8.82 0-16 7.18-16 16s7.18 16 16 16 16-7.18 16-16-7.18-16-16-16z"></path>
  </symbol>
   <symbol id="icon-facebook" viewBox="0 0 24 24">
    <path d="M22.675 0H1.325C.593 0 0 .593 0 1.325v21.351C0 23.407.593 24 1.325 24H12.82V14.706h-3.42v-3.62h3.42V8.414c0-3.358 2.053-5.185 5.056-5.185 1.438 0 2.673.107 3.032.155v3.517l-2.082.001c-1.63 0-1.946.774-1.946 1.911v2.504h3.892l-.508 3.62h-3.384V24h6.629C23.407 24 24 23.407 24 22.675V1.325C24 .593 23.407 0 22.675 0z"></path>
  </symbol>
  <symbol id="icon-twitter" viewBox="0 0 24 24">
    <path d="M24 4.557a9.83 9.83 0 0 1-2.828.775 4.936 4.936 0 0 0 2.165-2.724 9.863 9.863 0 0 1-3.127 1.196 4.922 4.922 0 0 0-8.38 4.483A13.978 13.978 0 0 1 1.671 3.15a4.822 4.822 0 0 0-.666 2.475c0 1.708.869 3.215 2.188 4.099A4.907 4.907 0 0 1 .964 9.4v.061a4.923 4.923 0 0 0 3.946 4.827 4.936 4.936 0 0 1-2.212.084 4.928 4.928 0 0 0 4.6 3.419A9.867 9.867 0 0 1 0 21.54a13.941 13.941 0 0 0 7.548 2.213c9.057 0 14.01-7.496 14.01-13.986 0-.213-.005-.425-.014-.637A10.025 10.025 0 0 0 24 4.557z"></path>
  </symbol>
  <symbol id="icon-linkedin" viewBox="0 0 24 24">
    <path d="M22.23 0H1.77C.79 0 0 .78 0 1.75v20.5C0 23.22.79 24 1.77 24H22.23c.98 0 1.77-.78 1.77-1.75V1.75C24 .78 23.21 0 22.23 0zM7.12 20.452H3.56V8.998h3.56v11.454zM5.34 7.49c-1.14 0-2.06-.92-2.06-2.06s.92-2.06 2.06-2.06 2.06.92 2.06 2.06-.92 2.06-2.06 2.06zM20.452 20.452h-3.56v-5.648c0-1.346-.025-3.08-1.876-3.08-1.878 0-2.165 1.465-2.165 2.975v5.753h-3.56V8.998h3.42v1.563h.05c.477-.9 1.64-1.844 3.375-1.844 3.605 0 4.27 2.372 4.27 5.456v6.279z"></path>
  </symbol>
  <symbol id="icon-instagram" viewBox="0 0 24 24">
    <path d="M12 2.163c3.204 0 3.584.012 4.85.07 1.206.055 2.084.24 2.562.41a5.006 5.006 0 0 1 1.777 1.002c.49.49.827 1.066 1.002 1.777.17.478.355 1.356.41 2.562.058 1.266.07 1.646.07 4.85s-.012 3.584-.07 4.85c-.055 1.206-.24 2.084-.41 2.562a5.006 5.006 0 0 1-1.002 1.777c-.49.49-1.066.827-1.777 1.002-.478.17-1.356.355-2.562.41-1.266.058-1.646.07-4.85.07s-3.584-.012-4.85-.07c-1.206-.055-2.084-.24-2.562-.41a5.006 5.006 0 0 1-1.777-1.002c-.49-.49-.827-1.066-1.002-1.777-.17-.478-.355-1.356-.41-2.562C2.175 15.783 2.163 15.403 2.163 12c0-3.204.012-3.584.07-4.85.055-1.206.24-2.084.41-2.562a5.006 5.006 0 0 1 1.002-1.777c.49-.49 1.066-.827 1.777-1.002.478-.17 1.356-.355 2.562-.41C8.417 2.175 8.797 2.163 12 2.163zm0-2.163C8.736 0 8.332.014 7.052.072 5.755.13 4.73.312 3.912.58 3.077.852 2.34 1.264 1.636 1.968.932 2.672.52 3.41.248 4.245c-.268.817-.45 1.843-.508 3.14C.014 8.332 0 8.736 0 12c0 3.264.014 3.668.072 4.948.058 1.297.24 2.323.508 3.14.272.835.684 1.573 1.388 2.277.704.704 1.442 1.116 2.277 1.388.817.268 1.843.45 3.14.508 1.28.058 1.684.072 4.948.072 3.264 0 3.668-.014 4.948-.072 1.297-.058 2.323-.24 3.14-.508.835-.272 1.573-.684 2.277-1.388.704-.704 1.116-1.442 1.388-2.277.268-.817.45-1.843.508-3.14.058-1.28.072-1.684.072-4.948 0-3.264-.014-3.668-.072-4.948-.058-1.297-.24-2.323-.508-3.14-.272-.835-.684-1.573-1.388-2.277-.704-.704-1.442-1.116-2.277-1.388-.817-.268-1.843-.45-3.14-.508C15.668.014 15.264 0 12 0zM12 5.838a6.162 6.162 0 1 0 0 12.324 6.162 6.162 0 0 0 0-12.324zm0 10.162a4 4 0 1 1 0-8 4 4 0 0 1 0 8zm6.406-11.845a1.44 1.44 0 1 0 0 2.882 1.44 1.44 0 0 0 0-2.882z"></path>
  </symbol>
    <symbol id="icon-instagram" viewBox="0 0 24 24">
    <path d="M12 2.163c3.204 0 3.584.012 4.85.07 1.366.062 2.633.35 3.608 1.325.975.975 1.263 2.242 1.325 3.608.058 1.266.07 1.646.07 4.85s-.012 3.584-.07 4.85c-.062 1.366-.35 2.633-1.325 3.608-.975.975-2.242 1.263-3.608 1.325-1.266.058-1.646.07-4.85.07s-3.584-.012-4.85-.07c-1.366-.062-2.633-.35-3.608-1.325-.975-.975-1.263-2.242-1.325-3.608-.058-1.266-.07-1.646-.07-4.85s.012-3.584.07-4.85c.062-1.366.35-2.633 1.325-3.608C5.527 2.585 6.794 2.297 8.16 2.235 9.426 2.177 9.806 2.163 13 2.163M12 0C8.741 0 8.332.011 7.053.066 5.77.121 4.614.405 3.514 1.504 2.414 2.603 2.131 3.759 2.075 5.042.966 8.246.95 8.664.95 12c0 3.336.016 3.754.075 5.038.056 1.283.339 2.439 1.438 3.538 1.099 1.099 2.255 1.382 3.538 1.438 1.283.059 1.702.075 5.038.075s3.754-.016 5.038-.075c1.283-.056 2.439-.339 3.538-1.438 1.099-1.099 1.382-2.255 1.438-3.538.059-1.283.075-1.702.075-5.038s-.016-3.754-.075-5.038c-.056-1.283-.339-2.439-1.438-3.538C18.849.405 17.693.121 16.41.066 15.128.011 14.719 0 12 0zm0 5.838c-3.403 0-6.162 2.759-6.162 6.162 0 3.403 2.759 6.162 6.162 6.162 3.403 0 6.162-2.759 6.162-6.162 0-3.403-2.759-6.162-6.162-6.162zm0 10.16c-2.205 0-3.998-1.793-3.998-3.998S9.795 8.002 12 8.002s3.998 1.793 3.998 3.998S14.205 15.998 12 15.998zm6.406-11.845c-.796 0-1.442.646-1.442 1.442 0 .796.646 1.442 1.442 1.442.796 0 1.442-.646 1.442-1.442 0-.796-.646-1.442-1.442-1.442z"/>
  </symbol>
</svg>
